<svg xmlns="http://www.w3.org/2000/svg" width="1400" height="880" viewBox="0 0 1400 880" fill="none">
  <defs>
    <style>
      .title { font-family: Inter, -apple-system, Segoe UI, Roboto, Arial, sans-serif; font-size: 34px; font-weight: 700; fill: #0a0a0a; }
      .subtitle { font-family: Inter, -apple-system, Segoe UI, Roboto, Arial, sans-serif; font-size: 16px; font-weight: 500; fill: #525252; }
      .section { font-family: Inter, -apple-system, Segoe UI, Roboto, Arial, sans-serif; font-size: 13px; font-weight: 700; fill: #404040; letter-spacing: 0.08em; text-transform: uppercase; }
      .boxTitle { font-family: Inter, -apple-system, Segoe UI, Roboto, Arial, sans-serif; font-size: 19px; font-weight: 700; fill: #111111; }
      .boxText { font-family: Inter, -apple-system, Segoe UI, Roboto, Arial, sans-serif; font-size: 14px; font-weight: 500; fill: #525252; }
      .pill { font-family: Inter, -apple-system, Segoe UI, Roboto, Arial, sans-serif; font-size: 12px; font-weight: 700; fill: #171717; }
      .legend { font-family: Inter, -apple-system, Segoe UI, Roboto, Arial, sans-serif; font-size: 12px; font-weight: 500; fill: #525252; }
    </style>
    <marker id="arrow" markerWidth="10" markerHeight="10" refX="9" refY="5" orient="auto" markerUnits="strokeWidth">
      <path d="M0 0L10 5L0 10Z" fill="#737373" />
    </marker>
    <filter id="shadow" x="-50%" y="-50%" width="200%" height="200%">
      <feDropShadow dx="0" dy="2" stdDeviation="6" flood-color="#0a0a0a" flood-opacity="0.08" />
    </filter>
  </defs>

  <rect x="0" y="0" width="1400" height="880" fill="#FAFAFA" />
  <rect x="0" y="0" width="1400" height="180" fill="url(#topFade)" />

  <text x="72" y="86" class="title">Document Analyzer RAG • Production Architecture</text>
  <text x="72" y="118" class="subtitle">Stateless architecture with bounded context, predictable limits, and resilient retrieval and streaming behavior.</text>

  <text x="72" y="168" class="section">Presentation Layer</text>
  <text x="72" y="366" class="section">Application Layer</text>
  <text x="72" y="656" class="section">Data &amp; AI Layer</text>

  <!-- Frontend -->
  <rect x="72" y="198" rx="22" ry="22" width="350" height="130" fill="#FFFFFF" stroke="#E5E5E5" stroke-width="1.5" filter="url(#shadow)"/>
  <text x="96" y="244" class="boxTitle">Next.js Frontend (Vercel)</text>
  <text x="96" y="270" class="boxText">Landing • Auth • Dashboard • Chat • Documents</text>
  <text x="96" y="292" class="boxText">SSE stream render • Responsive monochrome UI</text>

  <!-- Backend -->
  <rect x="522" y="198" rx="22" ry="22" width="430" height="130" fill="#FFFFFF" stroke="#E5E5E5" stroke-width="1.5" filter="url(#shadow)"/>
  <text x="546" y="244" class="boxTitle">Node.js + Express API (Render)</text>
  <text x="546" y="270" class="boxText">JWT auth • Rate limits • Origin guard • SSE chat</text>
  <text x="546" y="292" class="boxText">FTS retrieval first • Gemini fallback • Cache</text>

  <!-- Controls -->
  <rect x="1034" y="198" rx="22" ry="22" width="294" height="130" fill="#FFFFFF" stroke="#E5E5E5" stroke-width="1.5" filter="url(#shadow)"/>
  <text x="1058" y="244" class="boxTitle">Cost Controls</text>
  <text x="1058" y="270" class="boxText">10MB • 40 pages • 200 chunks/doc</text>
  <text x="1058" y="292" class="boxText">4 context chunks • 20 chats/day</text>

  <!-- API internals -->
  <rect x="72" y="398" rx="22" ry="22" width="300" height="220" fill="#FFFFFF" stroke="#E5E5E5" stroke-width="1.5" filter="url(#shadow)"/>
  <text x="96" y="442" class="boxTitle">Upload + Index Pipeline</text>
  <text x="96" y="468" class="boxText">1. Validate PDF / limits</text>
  <text x="96" y="492" class="boxText">2. Store in Supabase Storage</text>
  <text x="96" y="516" class="boxText">3. Parse + chunk text</text>
  <text x="96" y="540" class="boxText">4. Persist chunks + metadata</text>
  <text x="96" y="564" class="boxText">5. Optional vector embeddings</text>

  <rect x="402" y="398" rx="22" ry="22" width="300" height="220" fill="#FFFFFF" stroke="#E5E5E5" stroke-width="1.5" filter="url(#shadow)"/>
  <text x="426" y="442" class="boxTitle">Retrieval Engine</text>
  <text x="426" y="468" class="boxText">Default: PostgreSQL FTS</text>
  <text x="426" y="492" class="boxText">websearch_to_tsquery + ts_rank_cd</text>
  <text x="426" y="516" class="boxText">Top-K context chunks</text>
  <text x="426" y="540" class="boxText">Scoped by chat attachments</text>
  <text x="426" y="564" class="boxText">Vector mode optional</text>

  <rect x="732" y="398" rx="22" ry="22" width="300" height="220" fill="#FFFFFF" stroke="#E5E5E5" stroke-width="1.5" filter="url(#shadow)"/>
  <text x="756" y="442" class="boxTitle">RAG + Streaming</text>
  <text x="756" y="468" class="boxText">Prompt with history + context</text>
  <text x="756" y="492" class="boxText">Gemini stream to client (SSE)</text>
  <text x="756" y="516" class="boxText">Assistant saved after completion</text>
  <text x="756" y="540" class="boxText">Explicit stream error events</text>
  <text x="756" y="564" class="boxText">Error codes normalized</text>

  <rect x="1062" y="398" rx="22" ry="22" width="266" height="220" fill="#FFFFFF" stroke="#E5E5E5" stroke-width="1.5" filter="url(#shadow)"/>
  <text x="1086" y="442" class="boxTitle">Ops &amp; Safety</text>
  <text x="1086" y="468" class="boxText">/api/v1/health/live + /ready</text>
  <text x="1086" y="492" class="boxText">Async worker for document indexing</text>
  <text x="1086" y="516" class="boxText">Daily quota atomic consume</text>
  <text x="1086" y="540" class="boxText">Auth brute-force limiter</text>
  <text x="1086" y="564" class="boxText">Strict CORS + origin guard</text>

  <!-- Data layer -->
  <rect x="132" y="688" rx="20" ry="20" width="370" height="120" fill="#FFFFFF" stroke="#E5E5E5" stroke-width="1.5" filter="url(#shadow)"/>
  <text x="156" y="734" class="boxTitle">Supabase PostgreSQL</text>
  <text x="156" y="760" class="boxText">users • chats • messages • documents</text>
  <text x="156" y="782" class="boxText">chat_documents • chunks • daily_chat_usage</text>

  <rect x="542" y="688" rx="20" ry="20" width="300" height="120" fill="#FFFFFF" stroke="#E5E5E5" stroke-width="1.5" filter="url(#shadow)"/>
  <text x="566" y="734" class="boxTitle">Supabase Storage</text>
  <text x="566" y="760" class="boxText">documents bucket</text>
  <text x="566" y="782" class="boxText">No local filesystem dependency</text>

  <rect x="882" y="688" rx="20" ry="20" width="346" height="120" fill="#FFFFFF" stroke="#E5E5E5" stroke-width="1.5" filter="url(#shadow)"/>
  <text x="906" y="734" class="boxTitle">Google Gemini API</text>
  <text x="906" y="760" class="boxText">gemini-2.5-flash (generation)</text>
  <text x="906" y="782" class="boxText">gemini-embedding-001 (optional vectors)</text>

  <!-- Connectors -->
  <line x1="422" y1="263" x2="522" y2="263" stroke="#737373" stroke-width="2.4" marker-end="url(#arrow)" />
  <line x1="952" y1="263" x2="1034" y2="263" stroke="#737373" stroke-width="2.4" marker-end="url(#arrow)" />

  <line x1="252" y1="328" x2="252" y2="398" stroke="#8A8A8A" stroke-width="2" marker-end="url(#arrow)" />
  <line x1="552" y1="328" x2="552" y2="398" stroke="#8A8A8A" stroke-width="2" marker-end="url(#arrow)" />
  <line x1="882" y1="328" x2="882" y2="398" stroke="#8A8A8A" stroke-width="2" marker-end="url(#arrow)" />
  <line x1="1195" y1="328" x2="1195" y2="398" stroke="#8A8A8A" stroke-width="2" marker-end="url(#arrow)" />

  <line x1="252" y1="618" x2="252" y2="688" stroke="#8A8A8A" stroke-width="2" marker-end="url(#arrow)" />
  <line x1="552" y1="618" x2="342" y2="688" stroke="#8A8A8A" stroke-width="2" marker-end="url(#arrow)" />
  <line x1="552" y1="618" x2="692" y2="688" stroke="#8A8A8A" stroke-width="2" marker-end="url(#arrow)" />
  <line x1="882" y1="618" x2="1055" y2="688" stroke="#8A8A8A" stroke-width="2" marker-end="url(#arrow)" />

  <rect x="72" y="828" rx="12" ry="12" width="14" height="14" fill="#171717" />
  <text x="94" y="840" class="legend">Stateless compute path</text>
  <rect x="280" y="828" rx="12" ry="12" width="14" height="14" fill="#A3A3A3" />
  <text x="302" y="840" class="legend">Managed persistent services</text>

  <defs>
    <linearGradient id="topFade" x1="700" y1="0" x2="700" y2="180" gradientUnits="userSpaceOnUse">
      <stop stop-color="#FFFFFF" />
      <stop offset="1" stop-color="#FAFAFA" />
    </linearGradient>
  </defs>
</svg>
