<svg width="1400" height="900" viewBox="0 0 1400 900" fill="none" xmlns="http://www.w3.org/2000/svg">
  <style>
    .title { font: 700 34px 'Inter', 'Segoe UI', sans-serif; fill: #111827; }
    .subtitle { font: 500 17px 'Inter', 'Segoe UI', sans-serif; fill: #4B5563; }
    .box-title { font: 700 18px 'Inter', 'Segoe UI', sans-serif; fill: #111827; }
    .box-text { font: 500 14px 'Inter', 'Segoe UI', sans-serif; fill: #374151; }
    .small { font: 500 12px 'Inter', 'Segoe UI', sans-serif; fill: #6B7280; }
    .stroke { stroke: #111827; stroke-width: 2; }
    .muted { stroke: #9CA3AF; stroke-width: 2; stroke-dasharray: 8 6; }
  </style>

  <rect x="0" y="0" width="1400" height="900" fill="white"/>

  <text x="56" y="70" class="title">Document Analyzer RAG - Core Retrieval &amp; Answering Flow</text>
  <text x="56" y="102" class="subtitle">Stateless pipeline optimized for free-tier reliability with explicit limits and fallback behavior</text>

  <!-- Ingestion lane -->
  <rect x="56" y="150" width="1288" height="280" rx="16" fill="#F9FAFB" stroke="#E5E7EB"/>
  <text x="78" y="185" class="box-title">Ingestion Pipeline (Upload Time)</text>

  <rect x="86" y="212" width="220" height="170" rx="12" fill="white" class="stroke"/>
  <text x="106" y="240" class="box-title">1. Upload</text>
  <text x="106" y="266" class="box-text">PDF uploaded to</text>
  <text x="106" y="287" class="box-text">Supabase Storage</text>
  <text x="106" y="319" class="small">Limits:</text>
  <text x="106" y="339" class="small">- max 10MB</text>
  <text x="106" y="357" class="small">- max 40 pages</text>

  <rect x="354" y="212" width="220" height="170" rx="12" fill="white" class="stroke"/>
  <text x="374" y="240" class="box-title">2. Parse + Chunk</text>
  <text x="374" y="266" class="box-text">pdf-parse extraction</text>
  <text x="374" y="287" class="box-text">~450 tokens/chunk</text>
  <text x="374" y="308" class="box-text">~80 overlap</text>
  <text x="374" y="339" class="small">Hard cap: 200 chunks/doc</text>

  <rect x="622" y="212" width="260" height="170" rx="12" fill="white" class="stroke"/>
  <text x="642" y="240" class="box-title">3. Store in Postgres</text>
  <text x="642" y="266" class="box-text">`chunks.content` + metadata</text>
  <text x="642" y="287" class="box-text">`search_vector` (tsvector)</text>
  <text x="642" y="308" class="box-text">`document_hash` for dedupe</text>
  <text x="642" y="339" class="small">Primary retrieval: FTS</text>

  <rect x="930" y="212" width="384" height="170" rx="12" fill="white" class="stroke"/>
  <text x="950" y="240" class="box-title">4. Optional Vector Mode</text>
  <text x="950" y="266" class="box-text">Gemini Embedding: `text-embedding-004`</text>
  <text x="950" y="287" class="box-text">Persist vectors in pgvector column</text>
  <text x="950" y="308" class="box-text">Enabled only when `RETRIEVAL_MODE=vector`</text>
  <text x="950" y="339" class="small">Default stays FTS to reduce API spend</text>

  <line x1="306" y1="296" x2="354" y2="296" class="stroke"/>
  <polygon points="354,296 344,290 344,302" fill="#111827"/>

  <line x1="574" y1="296" x2="622" y2="296" class="stroke"/>
  <polygon points="622,296 612,290 612,302" fill="#111827"/>

  <line x1="882" y1="296" x2="930" y2="296" class="muted"/>
  <polygon points="930,296 920,290 920,302" fill="#9CA3AF"/>

  <!-- Chat lane -->
  <rect x="56" y="470" width="1288" height="360" rx="16" fill="#F9FAFB" stroke="#E5E7EB"/>
  <text x="78" y="505" class="box-title">Chat / RAG Pipeline (Per Question)</text>

  <rect x="86" y="532" width="220" height="240" rx="12" fill="white" class="stroke"/>
  <text x="106" y="560" class="box-title">1. Guardrails</text>
  <text x="106" y="586" class="box-text">JWT auth + origin checks</text>
  <text x="106" y="607" class="box-text">Per-IP rate limit</text>
  <text x="106" y="628" class="box-text">Per-user daily quota</text>
  <text x="106" y="659" class="small">Max 20 chat requests/day</text>

  <rect x="354" y="532" width="250" height="240" rx="12" fill="white" class="stroke"/>
  <text x="374" y="560" class="box-title">2. Cache Lookup</text>
  <text x="374" y="586" class="box-text">Key: `doc_id + normalized_query`</text>
  <text x="374" y="607" class="box-text">TTL: 600 seconds</text>
  <text x="374" y="638" class="small">Cache hit => return immediately</text>

  <rect x="652" y="532" width="260" height="240" rx="12" fill="white" class="stroke"/>
  <text x="672" y="560" class="box-title">3. Retrieval</text>
  <text x="672" y="586" class="box-text">Postgres FTS query</text>
  <text x="672" y="607" class="box-text">`websearch_to_tsquery(...)`</text>
  <text x="672" y="628" class="box-text">`ts_rank_cd(...)` ranking</text>
  <text x="672" y="659" class="small">Top 4 chunks to context</text>

  <rect x="960" y="532" width="354" height="240" rx="12" fill="white" class="stroke"/>
  <text x="980" y="560" class="box-title">4. Generation + Fallback</text>
  <text x="980" y="586" class="box-text">Gemini `gemini-1.5-flash` over SSE</text>
  <text x="980" y="607" class="box-text">Errors handled explicitly:</text>
  <text x="980" y="628" class="small">- AI_QUOTA_EXCEEDED</text>
  <text x="980" y="648" class="small">- AI_TIMEOUT</text>
  <text x="980" y="668" class="small">- AI_TEMPORARILY_UNAVAILABLE</text>
  <text x="980" y="699" class="box-text">Fallback: extractive answer from chunks</text>
  <text x="980" y="720" class="box-text">Response includes `fallback_used: true`</text>

  <line x1="306" y1="650" x2="354" y2="650" class="stroke"/>
  <polygon points="354,650 344,644 344,656" fill="#111827"/>

  <line x1="604" y1="650" x2="652" y2="650" class="stroke"/>
  <polygon points="652,650 642,644 642,656" fill="#111827"/>

  <line x1="912" y1="650" x2="960" y2="650" class="stroke"/>
  <polygon points="960,650 950,644 950,656" fill="#111827"/>

  <text x="56" y="870" class="small">Deployment target: Render (API) + Supabase (DB/Storage) + Vercel (Frontend) | Stateless by design</text>
</svg>
